<svg xmlns="http://www.w3.org/2000/svg" xmlns:xlink="http://www.w3.org/1999/xlink" width="150" zoomAndPan="magnify" viewBox="0 0 112.5 30.000001" height="40" preserveAspectRatio="xMidYMid meet" version="1.0"><defs><g/><clipPath id="8bdc6900ce"><path d="M 0.484375 1.09375 L 15.546875 1.09375 L 15.546875 16.15625 L 0.484375 16.15625 Z M 0.484375 1.09375 " clip-rule="nonzero"/></clipPath><clipPath id="eb2556f9d7"><rect x="0" width="101" y="0" height="17"/></clipPath></defs><g transform="matrix(1, 0, 0, 1, 5, 6)"><g clip-path="url(#eb2556f9d7)"><g clip-path="url(#8bdc6900ce)"><path fill="#dc0000" d="M 5.921875 16.140625 C 5.644531 16.054688 5.363281 15.96875 5.085938 15.878906 C 4.8125 15.785156 4.535156 15.6875 4.261719 15.582031 C 3.988281 15.476562 3.714844 15.359375 3.453125 15.230469 C 3.1875 15.101562 2.925781 14.957031 2.675781 14.796875 C 2.425781 14.632812 2.1875 14.453125 1.960938 14.25 C 1.738281 14.050781 1.53125 13.832031 1.34375 13.59375 C 1.15625 13.355469 0.992188 13.097656 0.859375 12.820312 C 0.722656 12.546875 0.621094 12.253906 0.558594 11.949219 C 0.542969 11.871094 0.527344 11.796875 0.519531 11.71875 C 0.507812 11.644531 0.5 11.566406 0.496094 11.484375 C 0.484375 11.328125 0.488281 11.171875 0.503906 11.015625 C 0.523438 10.859375 0.550781 10.703125 0.597656 10.550781 C 0.644531 10.398438 0.707031 10.25 0.785156 10.109375 C 0.867188 9.96875 0.964844 9.835938 1.082031 9.71875 C 1.136719 9.664062 1.199219 9.609375 1.265625 9.5625 C 1.332031 9.511719 1.402344 9.46875 1.472656 9.429688 C 1.617188 9.355469 1.773438 9.300781 1.929688 9.265625 C 2.085938 9.234375 2.246094 9.21875 2.402344 9.222656 C 2.71875 9.230469 3.03125 9.308594 3.320312 9.441406 C 3.390625 9.476562 3.460938 9.515625 3.527344 9.554688 C 3.542969 9.566406 3.5625 9.578125 3.578125 9.585938 L 3.628906 9.621094 C 3.644531 9.632812 3.660156 9.644531 3.675781 9.652344 L 3.699219 9.671875 L 3.722656 9.6875 C 3.785156 9.734375 3.847656 9.785156 3.902344 9.839844 C 3.960938 9.890625 4.019531 9.945312 4.070312 10.003906 C 4.285156 10.230469 4.464844 10.488281 4.609375 10.757812 L 4.636719 10.808594 L 4.660156 10.859375 C 4.671875 10.878906 4.679688 10.894531 4.6875 10.914062 C 4.695312 10.929688 4.703125 10.945312 4.710938 10.964844 C 4.742188 11.035156 4.769531 11.105469 4.792969 11.179688 C 4.804688 11.214844 4.8125 11.253906 4.820312 11.289062 C 4.828125 11.308594 4.832031 11.328125 4.835938 11.347656 C 4.839844 11.367188 4.84375 11.386719 4.84375 11.402344 C 4.859375 11.480469 4.867188 11.558594 4.863281 11.636719 L 4.691406 11.664062 C 4.679688 11.367188 4.6875 11.070312 4.722656 10.773438 C 4.757812 10.476562 4.820312 10.183594 4.910156 9.898438 C 4.957031 9.753906 5.007812 9.613281 5.070312 9.476562 C 5.128906 9.335938 5.199219 9.203125 5.273438 9.070312 C 5.308594 9.003906 5.347656 8.941406 5.390625 8.875 C 5.429688 8.8125 5.472656 8.75 5.519531 8.691406 C 5.5625 8.628906 5.609375 8.570312 5.65625 8.511719 C 5.703125 8.453125 5.753906 8.394531 5.804688 8.339844 C 5.855469 8.28125 5.90625 8.226562 5.960938 8.175781 C 6.011719 8.121094 6.070312 8.070312 6.125 8.019531 C 6.238281 7.917969 6.355469 7.824219 6.476562 7.738281 L 6.523438 7.703125 L 6.570312 7.671875 C 6.601562 7.652344 6.632812 7.632812 6.664062 7.609375 C 6.695312 7.589844 6.726562 7.570312 6.757812 7.550781 C 6.792969 7.53125 6.824219 7.511719 6.855469 7.492188 C 6.984375 7.417969 7.117188 7.347656 7.253906 7.285156 C 7.289062 7.269531 7.324219 7.253906 7.355469 7.238281 C 7.390625 7.226562 7.425781 7.210938 7.460938 7.195312 C 7.527344 7.167969 7.597656 7.140625 7.667969 7.113281 C 7.703125 7.101562 7.738281 7.089844 7.773438 7.078125 L 7.828125 7.058594 L 7.882812 7.042969 C 7.953125 7.019531 8.027344 7 8.105469 6.980469 C 8.179688 6.964844 8.257812 6.949219 8.332031 6.941406 C 8.410156 6.929688 8.488281 6.921875 8.566406 6.917969 C 8.722656 6.914062 8.882812 6.921875 9.039062 6.953125 C 9.195312 6.980469 9.351562 7.03125 9.5 7.101562 C 9.644531 7.171875 9.785156 7.265625 9.90625 7.375 C 10.027344 7.488281 10.128906 7.617188 10.210938 7.757812 C 10.253906 7.828125 10.289062 7.902344 10.324219 7.976562 C 10.355469 8.050781 10.382812 8.128906 10.40625 8.203125 C 10.425781 8.28125 10.445312 8.359375 10.460938 8.4375 C 10.472656 8.515625 10.484375 8.59375 10.492188 8.671875 C 10.5 8.75 10.503906 8.828125 10.503906 8.90625 C 10.503906 8.984375 10.5 9.0625 10.496094 9.136719 C 10.484375 9.292969 10.464844 9.445312 10.4375 9.59375 C 10.410156 9.742188 10.375 9.890625 10.335938 10.035156 L 10.300781 10.144531 C 10.289062 10.179688 10.277344 10.214844 10.269531 10.25 L 10.257812 10.277344 L 10.25 10.304688 L 10.230469 10.359375 C 10.21875 10.394531 10.203125 10.429688 10.191406 10.464844 C 10.136719 10.605469 10.078125 10.742188 10.011719 10.878906 C 9.945312 11.011719 9.875 11.144531 9.796875 11.269531 C 9.722656 11.398438 9.644531 11.523438 9.5625 11.644531 C 9.402344 11.890625 9.230469 12.125 9.0625 12.363281 C 8.890625 12.597656 8.722656 12.832031 8.5625 13.070312 L 8.558594 13.070312 C 8.535156 13.109375 8.484375 13.121094 8.441406 13.097656 C 8.15625 12.929688 7.878906 12.746094 7.609375 12.550781 C 7.34375 12.355469 7.085938 12.144531 6.839844 11.917969 C 6.59375 11.695312 6.359375 11.457031 6.136719 11.210938 C 5.914062 10.960938 5.703125 10.699219 5.507812 10.429688 C 5.40625 10.296875 5.3125 10.160156 5.222656 10.019531 C 5.128906 9.878906 5.039062 9.738281 4.957031 9.59375 C 4.785156 9.304688 4.628906 9.007812 4.492188 8.699219 C 4.351562 8.394531 4.226562 8.082031 4.117188 7.761719 C 4.007812 7.441406 3.917969 7.117188 3.84375 6.789062 C 3.808594 6.621094 3.773438 6.457031 3.746094 6.289062 C 3.71875 6.121094 3.695312 5.953125 3.679688 5.78125 C 3.664062 5.609375 3.660156 5.4375 3.660156 5.261719 C 3.664062 5.085938 3.675781 4.910156 3.703125 4.730469 C 3.730469 4.554688 3.769531 4.375 3.832031 4.199219 C 3.890625 4.023438 3.976562 3.851562 4.078125 3.691406 C 4.179688 3.535156 4.304688 3.386719 4.449219 3.253906 C 4.519531 3.1875 4.597656 3.128906 4.679688 3.074219 C 4.765625 3.019531 4.851562 2.96875 4.945312 2.929688 C 5.132812 2.847656 5.34375 2.796875 5.554688 2.792969 C 5.769531 2.785156 5.980469 2.828125 6.175781 2.902344 C 6.199219 2.910156 6.222656 2.921875 6.246094 2.929688 L 6.28125 2.945312 L 6.316406 2.964844 C 6.339844 2.976562 6.359375 2.988281 6.382812 3 C 6.40625 3.011719 6.429688 3.023438 6.449219 3.035156 C 6.535156 3.089844 6.617188 3.148438 6.695312 3.210938 C 6.847656 3.335938 6.980469 3.480469 7.09375 3.636719 C 7.148438 3.714844 7.199219 3.796875 7.246094 3.878906 L 7.261719 3.914062 L 7.28125 3.945312 C 7.289062 3.964844 7.300781 3.984375 7.308594 4.007812 C 7.332031 4.050781 7.347656 4.089844 7.367188 4.132812 C 7.4375 4.304688 7.488281 4.480469 7.523438 4.652344 C 7.542969 4.738281 7.558594 4.828125 7.570312 4.914062 L 7.578125 4.976562 C 7.582031 5 7.585938 5.019531 7.585938 5.042969 L 7.59375 5.105469 C 7.597656 5.128906 7.597656 5.148438 7.597656 5.171875 C 7.601562 5.214844 7.605469 5.257812 7.609375 5.300781 C 7.609375 5.34375 7.613281 5.386719 7.613281 5.429688 C 7.613281 5.515625 7.613281 5.601562 7.609375 5.6875 L 7.4375 5.699219 C 7.460938 5.242188 7.558594 4.785156 7.722656 4.355469 C 7.804688 4.140625 7.898438 3.929688 8.007812 3.726562 C 8.066406 3.625 8.125 3.527344 8.183594 3.429688 C 8.246094 3.332031 8.3125 3.234375 8.378906 3.140625 C 8.515625 2.957031 8.664062 2.777344 8.824219 2.613281 C 8.90625 2.527344 8.988281 2.449219 9.070312 2.371094 C 9.15625 2.292969 9.246094 2.21875 9.335938 2.144531 C 9.695312 1.855469 10.097656 1.617188 10.527344 1.4375 C 10.742188 1.351562 10.964844 1.277344 11.191406 1.222656 C 11.304688 1.195312 11.417969 1.171875 11.535156 1.152344 C 11.648438 1.132812 11.765625 1.121094 11.882812 1.109375 C 12.117188 1.09375 12.351562 1.09375 12.585938 1.113281 C 12.820312 1.136719 13.054688 1.179688 13.285156 1.242188 C 13.511719 1.308594 13.738281 1.398438 13.949219 1.511719 C 14.164062 1.625 14.367188 1.765625 14.546875 1.933594 C 14.730469 2.097656 14.890625 2.292969 15.023438 2.5 C 15.15625 2.707031 15.257812 2.933594 15.339844 3.164062 C 15.417969 3.398438 15.472656 3.636719 15.503906 3.875 C 15.535156 4.117188 15.542969 4.359375 15.53125 4.597656 C 15.527344 4.71875 15.515625 4.839844 15.5 4.957031 C 15.484375 5.074219 15.464844 5.191406 15.441406 5.308594 C 15.394531 5.542969 15.332031 5.769531 15.261719 5.992188 C 15.222656 6.101562 15.183594 6.210938 15.140625 6.320312 C 15.097656 6.429688 15.054688 6.539062 15.007812 6.644531 C 14.917969 6.855469 14.816406 7.0625 14.710938 7.265625 C 14.605469 7.46875 14.496094 7.664062 14.382812 7.863281 L 14.300781 8.011719 L 14.210938 8.15625 C 14.183594 8.203125 14.152344 8.253906 14.125 8.300781 C 14.09375 8.351562 14.0625 8.398438 14.035156 8.445312 C 13.550781 9.214844 13 9.9375 12.398438 10.609375 C 12.246094 10.777344 12.09375 10.941406 11.9375 11.101562 C 11.777344 11.261719 11.617188 11.417969 11.453125 11.574219 C 11.410156 11.609375 11.371094 11.648438 11.328125 11.6875 L 11.203125 11.800781 L 11.078125 11.910156 C 11.035156 11.949219 10.992188 11.984375 10.949219 12.019531 C 10.777344 12.164062 10.605469 12.304688 10.425781 12.441406 C 10.386719 12.472656 10.332031 12.464844 10.300781 12.421875 C 10.273438 12.386719 10.277344 12.339844 10.308594 12.304688 C 10.617188 11.984375 10.917969 11.660156 11.207031 11.324219 C 11.351562 11.15625 11.496094 10.988281 11.636719 10.820312 C 11.773438 10.648438 11.910156 10.476562 12.046875 10.300781 C 12.179688 10.128906 12.3125 9.953125 12.441406 9.773438 C 12.566406 9.59375 12.695312 9.414062 12.816406 9.234375 C 13.0625 8.871094 13.296875 8.496094 13.515625 8.121094 C 13.625 7.929688 13.734375 7.738281 13.835938 7.546875 C 13.863281 7.5 13.890625 7.449219 13.914062 7.402344 L 13.953125 7.328125 L 13.992188 7.257812 C 14.042969 7.160156 14.089844 7.0625 14.140625 6.964844 C 14.332031 6.574219 14.503906 6.179688 14.636719 5.78125 C 14.703125 5.582031 14.757812 5.378906 14.796875 5.175781 C 14.820312 5.074219 14.835938 4.972656 14.851562 4.871094 C 14.855469 4.820312 14.863281 4.769531 14.867188 4.71875 C 14.871094 4.667969 14.875 4.617188 14.878906 4.566406 C 14.886719 4.363281 14.882812 4.160156 14.859375 3.960938 C 14.832031 3.761719 14.789062 3.566406 14.730469 3.378906 C 14.667969 3.191406 14.585938 3.011719 14.484375 2.847656 C 14.386719 2.683594 14.265625 2.53125 14.128906 2.402344 C 13.988281 2.269531 13.832031 2.15625 13.660156 2.058594 C 13.488281 1.960938 13.304688 1.882812 13.117188 1.824219 C 12.734375 1.707031 12.324219 1.65625 11.917969 1.675781 C 11.816406 1.679688 11.714844 1.6875 11.613281 1.703125 C 11.511719 1.714844 11.410156 1.730469 11.308594 1.75 C 11.105469 1.792969 10.90625 1.851562 10.710938 1.921875 C 10.515625 1.992188 10.324219 2.078125 10.140625 2.175781 C 10.046875 2.226562 9.957031 2.277344 9.867188 2.332031 C 9.84375 2.347656 9.824219 2.363281 9.800781 2.375 L 9.734375 2.417969 C 9.691406 2.449219 9.648438 2.476562 9.605469 2.507812 C 9.519531 2.570312 9.433594 2.636719 9.351562 2.703125 C 9.273438 2.769531 9.191406 2.839844 9.113281 2.914062 C 8.957031 3.058594 8.8125 3.214844 8.675781 3.378906 C 8.539062 3.542969 8.410156 3.714844 8.296875 3.898438 C 8.238281 3.988281 8.183594 4.082031 8.132812 4.175781 C 8.082031 4.273438 8.03125 4.371094 7.988281 4.46875 C 7.804688 4.859375 7.675781 5.28125 7.609375 5.714844 L 7.609375 5.726562 C 7.601562 5.773438 7.554688 5.808594 7.507812 5.800781 C 7.46875 5.792969 7.441406 5.765625 7.4375 5.726562 C 7.394531 5.652344 7.355469 5.578125 7.320312 5.5 L 7.265625 5.386719 L 7.214844 5.273438 L 7.160156 5.164062 L 7.109375 5.054688 C 7.074219 4.980469 7.039062 4.910156 7.003906 4.839844 C 6.933594 4.699219 6.859375 4.566406 6.777344 4.441406 L 6.746094 4.394531 C 6.738281 4.378906 6.726562 4.363281 6.71875 4.347656 C 6.707031 4.335938 6.695312 4.320312 6.6875 4.304688 L 6.671875 4.28125 L 6.652344 4.261719 C 6.613281 4.207031 6.566406 4.152344 6.519531 4.101562 C 6.429688 4 6.328125 3.90625 6.222656 3.828125 C 6.171875 3.789062 6.117188 3.753906 6.0625 3.722656 C 6.035156 3.707031 6.007812 3.691406 5.976562 3.679688 L 5.957031 3.667969 L 5.9375 3.660156 C 5.921875 3.652344 5.90625 3.648438 5.894531 3.640625 C 5.835938 3.621094 5.78125 3.601562 5.722656 3.589844 C 5.714844 3.589844 5.710938 3.585938 5.703125 3.585938 L 5.679688 3.582031 C 5.667969 3.578125 5.652344 3.578125 5.636719 3.574219 C 5.625 3.574219 5.609375 3.570312 5.59375 3.570312 L 5.574219 3.570312 L 5.554688 3.566406 C 5.4375 3.5625 5.320312 3.578125 5.199219 3.613281 C 4.960938 3.683594 4.722656 3.839844 4.53125 4.046875 C 4.4375 4.152344 4.351562 4.273438 4.289062 4.398438 C 4.21875 4.53125 4.164062 4.671875 4.125 4.820312 C 4.085938 4.96875 4.0625 5.125 4.046875 5.28125 C 4.035156 5.4375 4.035156 5.597656 4.039062 5.757812 C 4.046875 5.917969 4.0625 6.078125 4.082031 6.238281 C 4.101562 6.402344 4.125 6.5625 4.15625 6.722656 C 4.214844 7.042969 4.292969 7.363281 4.386719 7.675781 C 4.480469 7.988281 4.589844 8.296875 4.71875 8.597656 C 4.972656 9.199219 5.289062 9.777344 5.667969 10.3125 C 6.042969 10.851562 6.472656 11.347656 6.953125 11.789062 C 7.191406 12.011719 7.445312 12.21875 7.707031 12.414062 C 7.96875 12.605469 8.246094 12.785156 8.527344 12.945312 L 8.40625 12.972656 C 8.679688 12.457031 9.003906 11.964844 9.285156 11.46875 C 9.355469 11.347656 9.425781 11.222656 9.488281 11.097656 C 9.554688 10.972656 9.613281 10.84375 9.667969 10.714844 C 9.722656 10.585938 9.773438 10.457031 9.816406 10.324219 C 9.828125 10.292969 9.839844 10.257812 9.851562 10.226562 L 9.863281 10.175781 L 9.878906 10.128906 C 9.886719 10.09375 9.898438 10.0625 9.90625 10.027344 L 9.933594 9.925781 L 9.957031 9.824219 C 9.960938 9.808594 9.960938 9.789062 9.964844 9.773438 L 9.976562 9.722656 C 9.980469 9.707031 9.984375 9.691406 9.984375 9.671875 L 9.996094 9.621094 C 10 9.585938 10.007812 9.550781 10.011719 9.519531 C 10.035156 9.382812 10.046875 9.25 10.050781 9.113281 C 10.058594 8.980469 10.054688 8.847656 10.039062 8.71875 C 10.03125 8.652344 10.019531 8.589844 10.007812 8.527344 C 9.996094 8.464844 9.980469 8.402344 9.960938 8.34375 C 9.921875 8.222656 9.871094 8.109375 9.808594 8.007812 C 9.75 7.902344 9.671875 7.8125 9.585938 7.730469 C 9.410156 7.574219 9.191406 7.46875 8.949219 7.425781 C 8.710938 7.382812 8.453125 7.394531 8.203125 7.449219 C 8.136719 7.460938 8.074219 7.476562 8.011719 7.496094 L 7.917969 7.527344 C 7.882812 7.535156 7.851562 7.546875 7.820312 7.558594 C 7.691406 7.605469 7.5625 7.652344 7.4375 7.710938 C 7.1875 7.820312 6.949219 7.949219 6.722656 8.101562 C 6.667969 8.140625 6.613281 8.179688 6.558594 8.222656 C 6.503906 8.261719 6.449219 8.304688 6.398438 8.347656 C 6.34375 8.390625 6.292969 8.433594 6.242188 8.480469 C 6.195312 8.527344 6.144531 8.574219 6.097656 8.625 C 5.90625 8.816406 5.734375 9.03125 5.585938 9.265625 C 5.550781 9.324219 5.511719 9.382812 5.480469 9.441406 C 5.460938 9.472656 5.445312 9.503906 5.429688 9.53125 L 5.40625 9.578125 C 5.394531 9.59375 5.390625 9.609375 5.378906 9.625 C 5.347656 9.6875 5.320312 9.75 5.292969 9.8125 C 5.261719 9.875 5.238281 9.941406 5.210938 10.003906 C 5.109375 10.265625 5.03125 10.535156 4.976562 10.816406 C 4.917969 11.09375 4.882812 11.375 4.867188 11.664062 L 4.863281 11.675781 C 4.863281 11.722656 4.820312 11.761719 4.773438 11.757812 C 4.734375 11.753906 4.703125 11.726562 4.691406 11.691406 C 4.648438 11.628906 4.609375 11.566406 4.574219 11.503906 C 4.535156 11.441406 4.503906 11.378906 4.46875 11.316406 C 4.4375 11.253906 4.40625 11.1875 4.371094 11.125 C 4.339844 11.0625 4.3125 11 4.277344 10.9375 C 4.144531 10.691406 3.988281 10.460938 3.800781 10.265625 C 3.753906 10.214844 3.707031 10.167969 3.65625 10.121094 C 3.605469 10.074219 3.550781 10.03125 3.496094 9.992188 L 3.457031 9.960938 C 3.445312 9.953125 3.429688 9.941406 3.417969 9.933594 L 3.375 9.90625 C 3.359375 9.894531 3.347656 9.886719 3.332031 9.878906 C 3.277344 9.84375 3.21875 9.8125 3.160156 9.78125 C 2.917969 9.667969 2.65625 9.601562 2.390625 9.59375 C 2.128906 9.589844 1.863281 9.640625 1.636719 9.757812 C 1.523438 9.816406 1.417969 9.890625 1.328125 9.980469 C 1.234375 10.070312 1.15625 10.175781 1.089844 10.289062 C 0.957031 10.519531 0.878906 10.78125 0.847656 11.054688 C 0.832031 11.191406 0.828125 11.328125 0.832031 11.46875 C 0.839844 11.605469 0.859375 11.742188 0.882812 11.878906 C 0.9375 12.15625 1.027344 12.421875 1.148438 12.675781 C 1.265625 12.929688 1.417969 13.171875 1.585938 13.398438 C 1.757812 13.625 1.949219 13.835938 2.15625 14.03125 C 2.363281 14.222656 2.589844 14.398438 2.824219 14.558594 C 3.0625 14.71875 3.308594 14.863281 3.5625 14.996094 C 3.816406 15.128906 4.078125 15.25 4.34375 15.363281 C 4.609375 15.472656 4.878906 15.578125 5.152344 15.675781 C 5.425781 15.777344 5.699219 15.871094 5.972656 15.96875 C 6.019531 15.984375 6.042969 16.035156 6.027344 16.085938 C 6.015625 16.128906 5.964844 16.15625 5.921875 16.140625 Z M 5.921875 16.140625 " fill-opacity="1" fill-rule="nonzero"/></g><g fill="#1f41af" fill-opacity="1"><g transform="translate(16.69254, 12.876249)"><g><path d="M 10.78125 -9.28125 C 10.851562 -9.15625 10.894531 -9.035156 10.90625 -8.921875 C 10.925781 -8.816406 10.9375 -8.664062 10.9375 -8.46875 L 10.9375 -1.15625 C 10.9375 -0.550781 10.769531 -0.195312 10.4375 -0.09375 C 10.269531 -0.0390625 10.054688 -0.015625 9.796875 -0.015625 C 9.546875 -0.015625 9.34375 -0.0351562 9.1875 -0.078125 C 9.039062 -0.117188 8.925781 -0.171875 8.84375 -0.234375 C 8.769531 -0.296875 8.710938 -0.382812 8.671875 -0.5 C 8.617188 -0.644531 8.59375 -0.875 8.59375 -1.1875 L 8.59375 -5.59375 C 8.375 -5.320312 8.050781 -4.890625 7.625 -4.296875 C 7.207031 -3.703125 6.941406 -3.332031 6.828125 -3.1875 C 6.722656 -3.039062 6.644531 -2.9375 6.59375 -2.875 C 6.550781 -2.820312 6.441406 -2.742188 6.265625 -2.640625 C 6.097656 -2.535156 5.914062 -2.484375 5.71875 -2.484375 C 5.519531 -2.484375 5.335938 -2.53125 5.171875 -2.625 C 5.015625 -2.71875 4.898438 -2.804688 4.828125 -2.890625 L 4.734375 -3.046875 C 4.554688 -3.265625 4.207031 -3.726562 3.6875 -4.4375 C 3.164062 -5.15625 2.882812 -5.539062 2.84375 -5.59375 L 2.84375 -1.15625 C 2.84375 -0.957031 2.835938 -0.804688 2.828125 -0.703125 C 2.816406 -0.597656 2.773438 -0.488281 2.703125 -0.375 C 2.566406 -0.132812 2.222656 -0.015625 1.671875 -0.015625 C 1.140625 -0.015625 0.804688 -0.132812 0.671875 -0.375 C 0.597656 -0.488281 0.554688 -0.597656 0.546875 -0.703125 C 0.535156 -0.816406 0.53125 -0.976562 0.53125 -1.1875 L 0.53125 -8.5 C 0.53125 -8.695312 0.535156 -8.847656 0.546875 -8.953125 C 0.554688 -9.054688 0.597656 -9.171875 0.671875 -9.296875 C 0.804688 -9.523438 1.148438 -9.640625 1.703125 -9.640625 C 1.941406 -9.640625 2.144531 -9.609375 2.3125 -9.546875 C 2.476562 -9.492188 2.585938 -9.4375 2.640625 -9.375 L 2.734375 -9.296875 L 5.71875 -5.375 C 7.207031 -7.351562 8.203125 -8.65625 8.703125 -9.28125 C 8.859375 -9.519531 9.210938 -9.640625 9.765625 -9.640625 C 10.328125 -9.640625 10.664062 -9.519531 10.78125 -9.28125 Z M 10.78125 -9.28125 "/></g></g></g><g fill="#1f41af" fill-opacity="1"><g transform="translate(28.147926, 12.876249)"><g><path d="M 5.03125 -6.203125 C 5.082031 -6.691406 5.429688 -6.9375 6.078125 -6.9375 C 6.421875 -6.9375 6.675781 -6.910156 6.84375 -6.859375 C 7.007812 -6.804688 7.125 -6.710938 7.1875 -6.578125 C 7.25 -6.453125 7.285156 -6.335938 7.296875 -6.234375 C 7.316406 -6.128906 7.328125 -5.976562 7.328125 -5.78125 L 7.328125 -1.171875 C 7.328125 -0.972656 7.316406 -0.820312 7.296875 -0.71875 C 7.285156 -0.613281 7.25 -0.5 7.1875 -0.375 C 7.0625 -0.144531 6.757812 -0.03125 6.28125 -0.03125 C 5.8125 -0.03125 5.492188 -0.0859375 5.328125 -0.203125 C 5.160156 -0.316406 5.066406 -0.488281 5.046875 -0.71875 C 4.722656 -0.257812 4.179688 -0.03125 3.421875 -0.03125 C 2.660156 -0.03125 1.953125 -0.375 1.296875 -1.0625 C 0.648438 -1.757812 0.328125 -2.566406 0.328125 -3.484375 C 0.328125 -4.398438 0.65625 -5.203125 1.3125 -5.890625 C 1.96875 -6.578125 2.6875 -6.921875 3.46875 -6.921875 C 3.757812 -6.921875 4.03125 -6.867188 4.28125 -6.765625 C 4.53125 -6.660156 4.703125 -6.5625 4.796875 -6.46875 C 4.890625 -6.375 4.96875 -6.285156 5.03125 -6.203125 Z M 2.640625 -3.46875 C 2.640625 -3.175781 2.75 -2.910156 2.96875 -2.671875 C 3.195312 -2.441406 3.472656 -2.328125 3.796875 -2.328125 C 4.128906 -2.328125 4.398438 -2.445312 4.609375 -2.6875 C 4.828125 -2.925781 4.9375 -3.1875 4.9375 -3.46875 C 4.9375 -3.757812 4.832031 -4.023438 4.625 -4.265625 C 4.425781 -4.515625 4.148438 -4.640625 3.796875 -4.640625 C 3.453125 -4.640625 3.171875 -4.515625 2.953125 -4.265625 C 2.742188 -4.023438 2.640625 -3.757812 2.640625 -3.46875 Z M 2.640625 -3.46875 "/></g></g></g><g fill="#1f41af" fill-opacity="1"><g transform="translate(35.995517, 12.876249)"><g><path d="M 4.5625 -4.609375 L 3.703125 -4.65625 L 3.703125 -2.84375 C 3.703125 -2.601562 3.738281 -2.429688 3.8125 -2.328125 C 3.882812 -2.222656 4.023438 -2.171875 4.234375 -2.171875 C 4.441406 -2.171875 4.597656 -2.164062 4.703125 -2.15625 C 4.816406 -2.144531 4.9375 -2.101562 5.0625 -2.03125 C 5.257812 -1.914062 5.359375 -1.617188 5.359375 -1.140625 C 5.359375 -0.585938 5.234375 -0.25 4.984375 -0.125 C 4.859375 -0.0703125 4.742188 -0.0351562 4.640625 -0.015625 C 4.535156 -0.00390625 4.390625 0 4.203125 0 C 3.285156 0 2.585938 -0.203125 2.109375 -0.609375 C 1.640625 -1.023438 1.40625 -1.726562 1.40625 -2.71875 L 1.40625 -4.65625 C 1.238281 -4.632812 1.054688 -4.625 0.859375 -4.625 C 0.671875 -4.625 0.515625 -4.695312 0.390625 -4.84375 C 0.265625 -5 0.203125 -5.253906 0.203125 -5.609375 C 0.203125 -5.972656 0.222656 -6.234375 0.265625 -6.390625 C 0.304688 -6.554688 0.367188 -6.675781 0.453125 -6.75 C 0.585938 -6.863281 0.757812 -6.921875 0.96875 -6.921875 L 1.40625 -6.859375 L 1.40625 -8.21875 C 1.40625 -8.414062 1.410156 -8.5625 1.421875 -8.65625 C 1.441406 -8.757812 1.484375 -8.867188 1.546875 -8.984375 C 1.660156 -9.203125 2 -9.3125 2.5625 -9.3125 C 3.164062 -9.3125 3.523438 -9.148438 3.640625 -8.828125 C 3.679688 -8.679688 3.703125 -8.457031 3.703125 -8.15625 L 3.703125 -6.859375 C 4.085938 -6.898438 4.378906 -6.921875 4.578125 -6.921875 C 4.773438 -6.921875 4.921875 -6.910156 5.015625 -6.890625 C 5.117188 -6.878906 5.238281 -6.835938 5.375 -6.765625 C 5.601562 -6.648438 5.71875 -6.3125 5.71875 -5.75 C 5.71875 -5.195312 5.597656 -4.859375 5.359375 -4.734375 C 5.222656 -4.679688 5.101562 -4.644531 5 -4.625 C 4.90625 -4.613281 4.757812 -4.609375 4.5625 -4.609375 Z M 4.5625 -4.609375 "/></g></g></g><g fill="#1f41af" fill-opacity="1"><g transform="translate(41.644045, 12.876249)"><g><path d="M 2.703125 -3.46875 C 2.703125 -3.09375 2.820312 -2.800781 3.0625 -2.59375 C 3.3125 -2.394531 3.570312 -2.296875 3.84375 -2.296875 C 4.125 -2.296875 4.382812 -2.375 4.625 -2.53125 C 4.863281 -2.695312 5.0625 -2.78125 5.21875 -2.78125 C 5.476562 -2.78125 5.796875 -2.546875 6.171875 -2.078125 C 6.378906 -1.828125 6.484375 -1.597656 6.484375 -1.390625 C 6.484375 -1.054688 6.238281 -0.75 5.75 -0.46875 C 5.25 -0.113281 4.632812 0.0625 3.90625 0.0625 C 3.09375 0.0625 2.304688 -0.226562 1.546875 -0.8125 C 1.191406 -1.09375 0.898438 -1.46875 0.671875 -1.9375 C 0.441406 -2.40625 0.328125 -2.921875 0.328125 -3.484375 C 0.328125 -4.054688 0.441406 -4.570312 0.671875 -5.03125 C 0.898438 -5.5 1.191406 -5.875 1.546875 -6.15625 C 2.273438 -6.726562 3.054688 -7.015625 3.890625 -7.015625 C 4.222656 -7.015625 4.546875 -6.96875 4.859375 -6.875 C 5.171875 -6.789062 5.40625 -6.703125 5.5625 -6.609375 L 5.765625 -6.484375 C 5.921875 -6.378906 6.046875 -6.296875 6.140625 -6.234375 C 6.367188 -6.054688 6.484375 -5.851562 6.484375 -5.625 C 6.484375 -5.40625 6.390625 -5.15625 6.203125 -4.875 C 5.890625 -4.394531 5.585938 -4.15625 5.296875 -4.15625 C 5.128906 -4.15625 4.890625 -4.25 4.578125 -4.4375 C 4.421875 -4.582031 4.195312 -4.65625 3.90625 -4.65625 C 3.613281 -4.65625 3.335938 -4.550781 3.078125 -4.34375 C 2.828125 -4.132812 2.703125 -3.84375 2.703125 -3.46875 Z M 2.703125 -3.46875 "/></g></g></g><g fill="#1f41af" fill-opacity="1"><g transform="translate(48.372393, 12.876249)"><g><path d="M 4.375 -6.921875 C 5.25 -6.921875 5.976562 -6.582031 6.5625 -5.90625 C 7.144531 -5.238281 7.4375 -4.425781 7.4375 -3.46875 L 7.4375 -1.140625 C 7.4375 -0.941406 7.429688 -0.789062 7.421875 -0.6875 C 7.410156 -0.59375 7.367188 -0.476562 7.296875 -0.34375 C 7.179688 -0.113281 6.84375 0 6.28125 0 C 5.75 0 5.414062 -0.113281 5.28125 -0.34375 C 5.207031 -0.476562 5.164062 -0.597656 5.15625 -0.703125 C 5.144531 -0.804688 5.140625 -0.960938 5.140625 -1.171875 L 5.140625 -3.484375 C 5.140625 -3.835938 5.035156 -4.113281 4.828125 -4.3125 C 4.628906 -4.519531 4.375 -4.625 4.0625 -4.625 C 3.75 -4.625 3.472656 -4.53125 3.234375 -4.34375 C 3.003906 -4.15625 2.867188 -3.941406 2.828125 -3.703125 L 2.828125 -1.140625 C 2.828125 -0.941406 2.820312 -0.789062 2.8125 -0.6875 C 2.800781 -0.59375 2.757812 -0.476562 2.6875 -0.34375 C 2.570312 -0.113281 2.234375 0 1.671875 0 C 1.117188 0 0.78125 -0.117188 0.65625 -0.359375 C 0.59375 -0.484375 0.554688 -0.59375 0.546875 -0.6875 C 0.535156 -0.789062 0.53125 -0.945312 0.53125 -1.15625 L 0.53125 -9.03125 C 0.53125 -9.238281 0.535156 -9.390625 0.546875 -9.484375 C 0.554688 -9.585938 0.59375 -9.703125 0.65625 -9.828125 C 0.78125 -10.066406 1.125 -10.1875 1.6875 -10.1875 C 2.238281 -10.1875 2.570312 -10.066406 2.6875 -9.828125 C 2.757812 -9.691406 2.800781 -9.570312 2.8125 -9.46875 C 2.820312 -9.375 2.828125 -9.222656 2.828125 -9.015625 L 2.828125 -6.109375 C 3.265625 -6.648438 3.78125 -6.921875 4.375 -6.921875 Z M 4.375 -6.921875 "/></g></g></g><g fill="#fbbf29" fill-opacity="1"><g transform="translate(56.342363, 12.876249)"><g><path d="M 0.53125 -5.78125 C 0.53125 -5.976562 0.535156 -6.128906 0.546875 -6.234375 C 0.554688 -6.335938 0.59375 -6.457031 0.65625 -6.59375 C 0.78125 -6.8125 1.125 -6.921875 1.6875 -6.921875 C 2.101562 -6.921875 2.398438 -6.847656 2.578125 -6.703125 C 2.734375 -6.578125 2.8125 -6.390625 2.8125 -6.140625 C 2.820312 -6.046875 2.828125 -5.914062 2.828125 -5.75 L 2.828125 -1.140625 C 2.828125 -0.941406 2.820312 -0.789062 2.8125 -0.6875 C 2.800781 -0.59375 2.757812 -0.476562 2.6875 -0.34375 C 2.570312 -0.113281 2.234375 0 1.671875 0 C 1.117188 0 0.78125 -0.117188 0.65625 -0.359375 C 0.59375 -0.484375 0.554688 -0.59375 0.546875 -0.6875 C 0.535156 -0.789062 0.53125 -0.945312 0.53125 -1.15625 Z M 2.6875 -8.21875 C 2.625 -8.09375 2.507812 -8.003906 2.34375 -7.953125 C 2.175781 -7.898438 1.953125 -7.875 1.671875 -7.875 C 1.398438 -7.875 1.179688 -7.898438 1.015625 -7.953125 C 0.847656 -8.003906 0.726562 -8.097656 0.65625 -8.234375 C 0.59375 -8.367188 0.554688 -8.484375 0.546875 -8.578125 C 0.535156 -8.679688 0.53125 -8.832031 0.53125 -9.03125 C 0.53125 -9.238281 0.535156 -9.390625 0.546875 -9.484375 C 0.554688 -9.585938 0.59375 -9.703125 0.65625 -9.828125 C 0.78125 -10.066406 1.125 -10.1875 1.6875 -10.1875 C 2.238281 -10.1875 2.570312 -10.066406 2.6875 -9.828125 C 2.757812 -9.691406 2.800781 -9.570312 2.8125 -9.46875 C 2.820312 -9.375 2.828125 -9.222656 2.828125 -9.015625 C 2.828125 -8.816406 2.820312 -8.664062 2.8125 -8.5625 C 2.800781 -8.46875 2.757812 -8.351562 2.6875 -8.21875 Z M 2.6875 -8.21875 "/></g></g></g><g fill="#1f41af" fill-opacity="1"><g transform="translate(59.711545, 12.876249)"><g><path d="M 4.390625 -6.9375 C 5.265625 -6.9375 5.992188 -6.597656 6.578125 -5.921875 C 7.160156 -5.253906 7.453125 -4.441406 7.453125 -3.484375 L 7.453125 -1.15625 C 7.453125 -0.957031 7.445312 -0.804688 7.4375 -0.703125 C 7.425781 -0.597656 7.390625 -0.488281 7.328125 -0.375 C 7.203125 -0.132812 6.859375 -0.015625 6.296875 -0.015625 C 5.671875 -0.015625 5.3125 -0.175781 5.21875 -0.5 C 5.164062 -0.644531 5.140625 -0.867188 5.140625 -1.171875 L 5.140625 -3.484375 C 5.140625 -3.847656 5.035156 -4.128906 4.828125 -4.328125 C 4.617188 -4.535156 4.34375 -4.640625 4 -4.640625 C 3.65625 -4.640625 3.375 -4.53125 3.15625 -4.3125 C 2.9375 -4.101562 2.828125 -3.828125 2.828125 -3.484375 L 2.828125 -1.15625 C 2.828125 -0.957031 2.820312 -0.804688 2.8125 -0.703125 C 2.800781 -0.597656 2.757812 -0.488281 2.6875 -0.375 C 2.570312 -0.132812 2.234375 -0.015625 1.671875 -0.015625 C 1.117188 -0.015625 0.78125 -0.132812 0.65625 -0.375 C 0.59375 -0.5 0.554688 -0.613281 0.546875 -0.71875 C 0.535156 -0.820312 0.53125 -0.972656 0.53125 -1.171875 L 0.53125 -5.828125 C 0.53125 -6.023438 0.535156 -6.171875 0.546875 -6.265625 C 0.554688 -6.367188 0.597656 -6.484375 0.671875 -6.609375 C 0.796875 -6.828125 1.132812 -6.9375 1.6875 -6.9375 C 2.21875 -6.9375 2.546875 -6.835938 2.671875 -6.640625 C 2.765625 -6.492188 2.8125 -6.3125 2.8125 -6.09375 C 2.84375 -6.15625 2.921875 -6.242188 3.046875 -6.359375 C 3.171875 -6.472656 3.285156 -6.566406 3.390625 -6.640625 C 3.691406 -6.835938 4.023438 -6.9375 4.390625 -6.9375 Z M 4.390625 -6.9375 "/></g></g></g><g fill="#1f41af" fill-opacity="1"><g transform="translate(67.690805, 12.876249)"><g><path d="M 5.171875 -9.828125 C 5.242188 -9.960938 5.363281 -10.054688 5.53125 -10.109375 C 5.695312 -10.160156 5.914062 -10.1875 6.1875 -10.1875 C 6.46875 -10.1875 6.691406 -10.160156 6.859375 -10.109375 C 7.023438 -10.054688 7.140625 -9.960938 7.203125 -9.828125 C 7.273438 -9.691406 7.316406 -9.570312 7.328125 -9.46875 C 7.335938 -9.375 7.34375 -9.222656 7.34375 -9.015625 L 7.34375 -1.15625 C 7.34375 -0.957031 7.335938 -0.804688 7.328125 -0.703125 C 7.316406 -0.597656 7.273438 -0.488281 7.203125 -0.375 C 7.066406 -0.132812 6.691406 -0.015625 6.078125 -0.015625 C 5.472656 -0.015625 5.140625 -0.226562 5.078125 -0.65625 C 4.703125 -0.238281 4.1875 -0.03125 3.53125 -0.03125 C 2.738281 -0.03125 2.015625 -0.375 1.359375 -1.0625 C 0.710938 -1.75 0.390625 -2.550781 0.390625 -3.46875 C 0.390625 -4.382812 0.71875 -5.1875 1.375 -5.875 C 2.03125 -6.570312 2.75 -6.921875 3.53125 -6.921875 C 4.175781 -6.921875 4.679688 -6.703125 5.046875 -6.265625 L 5.046875 -9.03125 C 5.046875 -9.238281 5.050781 -9.390625 5.0625 -9.484375 C 5.070312 -9.585938 5.109375 -9.703125 5.171875 -9.828125 Z M 3.046875 -2.671875 C 3.273438 -2.429688 3.550781 -2.3125 3.875 -2.3125 C 4.195312 -2.3125 4.460938 -2.429688 4.671875 -2.671875 C 4.890625 -2.910156 5 -3.171875 5 -3.453125 C 5 -3.742188 4.894531 -4.007812 4.6875 -4.25 C 4.488281 -4.5 4.210938 -4.625 3.859375 -4.625 C 3.503906 -4.625 3.222656 -4.503906 3.015625 -4.265625 C 2.804688 -4.023438 2.703125 -3.757812 2.703125 -3.46875 C 2.703125 -3.175781 2.816406 -2.910156 3.046875 -2.671875 Z M 3.046875 -2.671875 "/></g></g></g><g fill="#1f41af" fill-opacity="1"><g transform="translate(75.564729, 12.876249)"><g><path d="M 7.21875 -4.296875 C 7.21875 -3.753906 7.082031 -3.351562 6.8125 -3.09375 C 6.550781 -2.84375 6.253906 -2.71875 5.921875 -2.71875 L 2.8125 -2.71875 C 2.8125 -2.46875 2.953125 -2.257812 3.234375 -2.09375 C 3.523438 -1.925781 3.816406 -1.84375 4.109375 -1.84375 C 4.617188 -1.84375 5.019531 -1.894531 5.3125 -2 L 5.453125 -2.0625 C 5.660156 -2.15625 5.835938 -2.203125 5.984375 -2.203125 C 6.265625 -2.203125 6.503906 -2.003906 6.703125 -1.609375 C 6.816406 -1.367188 6.875 -1.164062 6.875 -1 C 6.875 -0.21875 5.9375 0.171875 4.0625 0.171875 C 3.414062 0.171875 2.835938 0.0625 2.328125 -0.15625 C 1.828125 -0.382812 1.4375 -0.679688 1.15625 -1.046875 C 0.601562 -1.765625 0.328125 -2.5625 0.328125 -3.4375 C 0.328125 -4.539062 0.679688 -5.425781 1.390625 -6.09375 C 2.109375 -6.757812 3.003906 -7.09375 4.078125 -7.09375 C 5.304688 -7.09375 6.203125 -6.660156 6.765625 -5.796875 C 7.066406 -5.335938 7.21875 -4.835938 7.21875 -4.296875 Z M 4.4375 -3.90625 C 4.769531 -3.90625 4.9375 -4.046875 4.9375 -4.328125 C 4.9375 -4.535156 4.859375 -4.695312 4.703125 -4.8125 C 4.554688 -4.9375 4.335938 -5 4.046875 -5 C 3.765625 -5 3.484375 -4.882812 3.203125 -4.65625 C 2.921875 -4.425781 2.78125 -4.175781 2.78125 -3.90625 Z M 4.4375 -3.90625 "/></g></g></g><g fill="#1f41af" fill-opacity="1"><g transform="translate(83.109475, 12.876249)"><g><path d="M 7.21875 -4.296875 C 7.21875 -3.753906 7.082031 -3.351562 6.8125 -3.09375 C 6.550781 -2.84375 6.253906 -2.71875 5.921875 -2.71875 L 2.8125 -2.71875 C 2.8125 -2.46875 2.953125 -2.257812 3.234375 -2.09375 C 3.523438 -1.925781 3.816406 -1.84375 4.109375 -1.84375 C 4.617188 -1.84375 5.019531 -1.894531 5.3125 -2 L 5.453125 -2.0625 C 5.660156 -2.15625 5.835938 -2.203125 5.984375 -2.203125 C 6.265625 -2.203125 6.503906 -2.003906 6.703125 -1.609375 C 6.816406 -1.367188 6.875 -1.164062 6.875 -1 C 6.875 -0.21875 5.9375 0.171875 4.0625 0.171875 C 3.414062 0.171875 2.835938 0.0625 2.328125 -0.15625 C 1.828125 -0.382812 1.4375 -0.679688 1.15625 -1.046875 C 0.601562 -1.765625 0.328125 -2.5625 0.328125 -3.4375 C 0.328125 -4.539062 0.679688 -5.425781 1.390625 -6.09375 C 2.109375 -6.757812 3.003906 -7.09375 4.078125 -7.09375 C 5.304688 -7.09375 6.203125 -6.660156 6.765625 -5.796875 C 7.066406 -5.335938 7.21875 -4.835938 7.21875 -4.296875 Z M 4.4375 -3.90625 C 4.769531 -3.90625 4.9375 -4.046875 4.9375 -4.328125 C 4.9375 -4.535156 4.859375 -4.695312 4.703125 -4.8125 C 4.554688 -4.9375 4.335938 -5 4.046875 -5 C 3.765625 -5 3.484375 -4.882812 3.203125 -4.65625 C 2.921875 -4.425781 2.78125 -4.175781 2.78125 -3.90625 Z M 4.4375 -3.90625 "/></g></g></g><g fill="#1f41af" fill-opacity="1"><g transform="translate(90.65422, 12.876249)"><g><path d="M 5.171875 -9.828125 C 5.242188 -9.960938 5.363281 -10.054688 5.53125 -10.109375 C 5.695312 -10.160156 5.914062 -10.1875 6.1875 -10.1875 C 6.46875 -10.1875 6.691406 -10.160156 6.859375 -10.109375 C 7.023438 -10.054688 7.140625 -9.960938 7.203125 -9.828125 C 7.273438 -9.691406 7.316406 -9.570312 7.328125 -9.46875 C 7.335938 -9.375 7.34375 -9.222656 7.34375 -9.015625 L 7.34375 -1.15625 C 7.34375 -0.957031 7.335938 -0.804688 7.328125 -0.703125 C 7.316406 -0.597656 7.273438 -0.488281 7.203125 -0.375 C 7.066406 -0.132812 6.691406 -0.015625 6.078125 -0.015625 C 5.472656 -0.015625 5.140625 -0.226562 5.078125 -0.65625 C 4.703125 -0.238281 4.1875 -0.03125 3.53125 -0.03125 C 2.738281 -0.03125 2.015625 -0.375 1.359375 -1.0625 C 0.710938 -1.75 0.390625 -2.550781 0.390625 -3.46875 C 0.390625 -4.382812 0.71875 -5.1875 1.375 -5.875 C 2.03125 -6.570312 2.75 -6.921875 3.53125 -6.921875 C 4.175781 -6.921875 4.679688 -6.703125 5.046875 -6.265625 L 5.046875 -9.03125 C 5.046875 -9.238281 5.050781 -9.390625 5.0625 -9.484375 C 5.070312 -9.585938 5.109375 -9.703125 5.171875 -9.828125 Z M 3.046875 -2.671875 C 3.273438 -2.429688 3.550781 -2.3125 3.875 -2.3125 C 4.195312 -2.3125 4.460938 -2.429688 4.671875 -2.671875 C 4.890625 -2.910156 5 -3.171875 5 -3.453125 C 5 -3.742188 4.894531 -4.007812 4.6875 -4.25 C 4.488281 -4.5 4.210938 -4.625 3.859375 -4.625 C 3.503906 -4.625 3.222656 -4.503906 3.015625 -4.265625 C 2.804688 -4.023438 2.703125 -3.757812 2.703125 -3.46875 C 2.703125 -3.175781 2.816406 -2.910156 3.046875 -2.671875 Z M 3.046875 -2.671875 "/></g></g></g></g></g></svg>